#!OML:ASF F:\VICON\USERDATA\INSTALL\Justin_Nancy\Justin_Nancy.ASF
:FULLY-SPECIFIED
:DEGREES
49
root -11.4757 15.7632 -11.9301 -15.3153 21.4686 -12.911
lowerback 21.3438 -0.204218 2.86032
upperback 4.31633 1.1726 8.01214
thorax -7.34426 0.636113 6.84728
lowerneck -13.3355 -3.16629 -7.23601
upperneck 17.7878 -2.93334 0.944346
head 7.8302 -1.77996 1.19102
rclavicle -7.64327e-014 -5.725e-014
rhumerus -51.3906 18.4011 -95.5094
rradius 107.137
rwrist -8.09325
rhand -16.1815 28.248
rfingers 7.12502
rthumb 10.025 -1.49327
lclavicle -7.64327e-014 -5.725e-014
lhumerus -55.0196 -18.3762 100.669
lradius 109.799
lwrist 18.4803
lhand -19.7341 6.48774
lfingers 7.12502
lthumb 6.59652 36.365
rfemur -17.5806 -6.51436 16.1525
rtibia 57.3054
rfoot -10.646 -3.51858
rtoes -32.5711
lfemur -39.1684 6.90875 -21.3679
ltibia 69.5748
lfoot -8.16642 -3.02824
ltoes -9.16552
50
root -11.4008 15.7934 -11.534 -14.947 21.9303 -11.9893
lowerback 21.3596 0.217114 2.20196
upperback 4.48172 1.55623 7.86249
thorax -7.2208 0.832524 6.9502
lowerneck -13.5703 -2.8923 -6.97594
upperneck 18.1762 -2.59543 0.977068
head 7.9817 -1.60337 1.19405
rclavicle 2.89232e-014 -2.54444e-014
rhumerus -50.4663 18.5738 -94.0912
rradius 105.546
rwrist -7.08204
rhand -16.4403 27.7488
rfingers 7.12502
rthumb 9.77537 -2.00434
lclavicle 2.89232e-014 -2.54444e-014
lhumerus -54.7707 -16.9086 100.524
lradius 110.323
lwrist 19.352
lhand -20.4227 7.92131
lfingers 7.12502
lthumb 5.93173 37.8183
rfemur -18.062 -7.02303 14.6393
rtibia 60.479
rfoot -9.36436 -1.09881
rtoes -33.9729
lfemur -38.5623 7.40931 -23.6473
ltibia 65.5579
lfoot -7.23324 -3.95776
ltoes -8.82152
51
root -11.3046 15.8176 -11.1301 -14.6089 22.4656 -11.0053
lowerback 21.0899 0.557823 1.71132
upperback 4.7712 1.8376 7.62818
thorax -6.79651 0.969453 6.88063
lowerneck -13.5075 -2.5668 -6.51121
upperneck 18.0733 -2.24656 0.936558
head 7.91274 -1.4076 1.14427
rclavicle -5.22804e-014 -1.03368e-014
rhumerus -49.4184 18.3842 -92.4625
rradius 103.863
rwrist -6.17641
rhand -16.581 28.2707
rfingers 7.12502
rthumb 9.63961 -1.4887
lclavicle -5.22804e-014 -1.03368e-014
lhumerus -54.7637 -15.6398 100.403
lradius 111.03
lwrist 20.2358
lhand -21.463 8.79087
lfingers 7.12502
lthumb 4.92734 38.7136
rfemur -18.6803 -7.62983 12.7953
rtibia 63.6928
rfoot -6.84578 2.05185
rtoes -34.0537
lfemur -37.5283 7.51133 -25.9037
ltibia 61.5165
lfoot -5.8012 -5.39942
ltoes -7.02922
52
root -11.1999 15.8418 -10.7344 -14.4749 22.6791 -10.3801
lowerback 20.9354 0.942529 1.83178
upperback 4.98276 2.31859 7.32612
thorax -6.51869 1.19484 6.33252
lowerneck -13.3085 -2.53298 -5.99865
upperneck 17.8546 -2.33172 0.959673
head 7.79897 -1.4077 1.06094
rclavicle -3.49861e-014 -3.57812e-014
rhumerus -48.9147 17.4576 -91.0459
rradius 102.396
rwrist -5.3524
rhand -16.4805 29.4867
rfingers 7.12502
rthumb 9.73654 -0.268231
lclavicle -3.49861e-014 -3.57812e-014
lhumerus -55.3475 -14.9274 100.094
lradius 112.116
lwrist 21.4822
lhand -21.2063 8.64337
lfingers 7.12502
lthumb 5.17511 38.5602
rfemur -19.5867 -7.95476 11.3046
rtibia 66.7013
rfoot -2.82823 5.57015
rtoes -31.0387
lfemur -36.2953 7.65982 -27.5483
ltibia 57.8129
lfoot -4.33622 -6.49966
ltoes -2.35078
53
root -11.0874 15.8513 -10.354 -14.2091 22.8248 -9.56362
lowerback 21.0618 1.22022 1.98496
upperback 5.03805 2.68168 6.90499
thorax -6.53329 1.36417 5.67373
lowerneck -13.3514 -2.49195 -5.68307
upperneck 17.9528 -2.34944 1.01046
head 7.83471 -1.39035 1.02382
rclavicle 1.23246e-014 2.3059e-014
rhumerus -48.5933 16.7751 -89.8689
rradius 101.244
rwrist -6.15981
rhand -16.2413 28.7594
rfingers 7.12502
rthumb 9.96738 -0.984596
lclavicle 1.23246e-014 2.3059e-014
lhumerus -56.1287 -14.0838 99.6761
lradius 113.161
lwrist 22.5704
lhand -20.4318 7.57298
lfingers 7.12502
lthumb 5.92295 37.4702
rfemur -20.8889 -8.38609 9.55021
rtibia 69.3956
rfoot 1.79527 9.37327
rtoes -26.2163
lfemur -35.1034 7.64817 -29.2623
ltibia 54.7566
lfoot -3.08412 -6.45624
ltoes 6.59383
54
root -10.9772 15.8394 -9.97853 -14.0787 22.8125 -8.98141
lowerback 21.333 1.33785 2.22694
upperback 5.01387 2.88028 6.6258
thorax -6.69315 1.45382 5.16842
lowerneck -12.9235 -2.28071 -5.26247
upperneck 17.7387 -2.11937 0.725509
head 7.6707 -1.27755 0.889688
rclavicle 3.91606e-014 -7.95139e-015
rhumerus -48.2659 16.7721 -88.7153
rradius 100.261
rwrist -8.29588
rhand -16.7275 27.2952
rfingers 7.12502
rthumb 9.49825 -2.47069
lclavicle 3.91606e-014 -7.95139e-015
lhumerus -57.2123 -12.8858 99.3566
lradius 114.387
lwrist 23.3607
lhand -20.6931 7.00572
lfingers 7.12502
lthumb 5.6707 36.9098
rfemur -22.1397 -8.81761 8.10488
rtibia 71.5695
rfoot 5.6967 12.836
rtoes -17.1973
lfemur -34.0005 7.6719 -30.585
ltibia 52.7322
lfoot -1.94667 -4.83859
ltoes 16.0061
55
root -10.8683 15.8224 -9.5903 -13.7689 22.8697 -8.34372
lowerback 21.0039 1.4143 2.05215
upperback 5.10589 2.90401 6.48937
thorax -6.42251 1.46578 5.11261
lowerneck -12.4991 -1.96403 -5.08942
upperneck 17.433 -1.70277 0.495611
head 7.47803 -1.0854 0.832874
rclavicle -3.16068e-014 -3.4191e-014
rhumerus -47.8523 17.0848 -87.4387
rradius 99.4483
rwrist -10.6684
rhand -17.5959 26.5098
rfingers 7.12502
rthumb 8.66028 -3.29255
lclavicle -3.16068e-014 -3.4191e-014
lhumerus -58.3551 -11.674 99.0757
lradius 115.934
lwrist 24.1318
lhand -20.7031 6.53611
lfingers 7.12502
lthumb 5.66098 36.4405
rfemur -23.1639 -9.25334 6.73513
rtibia 73.0427
rfoot 3.83164 12.7296
rtoes -21.2616
lfemur -33.16 7.86797 -31.9187
ltibia 51.8793
lfoot -1.50217 -2.28397
ltoes 21.6404
56
root -10.7609 15.8007 -9.20223 -13.5263 22.8099 -7.98255
lowerback 20.4744 1.45644 1.97695
upperback 5.37933 2.89872 6.5267
thorax -5.85194 1.46291 5.20114
lowerneck -12.9061 -1.64802 -5.55526
upperneck 17.592 -1.19106 0.729405
head 7.59283 -0.852079 1.03645
rclavicle 1.20662e-013 5.40694e-014
rhumerus -47.2672 17.4948 -86.0519
rradius 98.8207
rwrist -12.6957
rhand -17.621 26.1369
rfingers 7.12502
rthumb 8.63608 -3.66646
lclavicle 1.20662e-013 5.40694e-014
lhumerus -58.993 -10.5183 98.7534
lradius 117.319
lwrist 24.7707
lhand -20.4771 5.86483
lfingers 7.12502
lthumb 5.87916 35.7633
rfemur -23.9891 -9.43306 5.89341
rtibia 73.5873
rfoot 2.17574 10.4884
rtoes -21.5319
lfemur -32.5814 8.24785 -32.853
ltibia 52.29
lfoot -2.22783 -0.307093
ltoes 23.534
57
root -10.6638 15.7646 -8.81986 -13.5907 22.6964 -8.02899
lowerback 20.3202 1.498 2.17787
upperback 5.54243 2.98622 6.65647
thorax -5.59827 1.50442 5.20698
lowerneck -13.0748 -1.41793 -5.63104
upperneck 17.7769 -0.820268 0.604794
head 7.67219 -0.694499 1.04625
rclavicle 2.40529e-014 -7.95139e-014
rhumerus -46.8876 17.6591 -84.7921
rradius 98.2065
rwrist -13.9182
rhand -17.101 26.3123
rfingers 7.12502
rthumb 9.13792 -3.46975
lclavicle 2.40529e-014 -7.95139e-014
lhumerus -59.5075 -9.8088 98.5493
lradius 118.401
lwrist 25.2397
lhand -20.5535 5.46492
lfingers 7.12502
lthumb 5.80544 35.3654
rfemur -24.6124 -9.40948 5.6537
rtibia 73.1084
rfoot 1.65318 6.4694
rtoes -19.2518
lfemur -32.0427 8.49413 -33.1713
ltibia 53.7113
lfoot -3.70976 1.35583
ltoes 23.5012
58
root -10.5757 15.7254 -8.43935 -13.7931 22.568 -8.22047
lowerback 20.328 1.61307 2.18379
upperback 5.58085 3.16623 7.00575
thorax -5.5951 1.59586 5.54337
lowerneck -12.5779 -1.20692 -5.6236
upperneck 17.6669 -0.482823 0.192857
head 7.53752 -0.56861 0.945748
rclavicle -2.84262e-014 -2.22639e-014
rhumerus -46.9871 17.8194 -83.5229
rradius 97.8079
rwrist -14.2388
rhand -16.9229 26.2987
rfingers 7.12502
rthumb 9.30973 -3.47578
lclavicle -2.84262e-014 -2.22639e-014
lhumerus -60.0132 -9.15515 98.6252
lradius 119.272
lwrist 25.4565
lhand -20.0898 5.40069
lfingers 7.12502
lthumb 6.25313 35.2884
rfemur -24.9353 -9.16815 5.64069
rtibia 71.6097
rfoot 1.3516 1.78001
rtoes -15.7723
lfemur -31.5052 8.45061 -33.0621
ltibia 55.7613
lfoot -5.48388 3.53654
ltoes 20.9924
59
root -10.4889 15.6975 -8.07044 -13.9068 22.4286 -8.45669
lowerback 20.3442 1.75657 2.19888
upperback 5.59168 3.38992 7.37624
thorax -5.6334 1.70931 5.88783
lowerneck -12.3192 -0.980222 -5.96591
upperneck 17.7402 -0.105313 0.144404
head 7.50652 -0.415489 1.02518
rclavicle -4.79071e-014 -6.36111e-015
rhumerus -47.2204 17.6978 -82.2962
rradius 97.5779
rwrist -13.5885
rhand -16.4126 26.0604
rfingers 7.12502
rthumb 9.80212 -3.69143
lclavicle -4.79071e-014 -6.36111e-015
lhumerus -60.1599 -8.72536 98.7316
lradius 119.867
lwrist 25.3337
lhand -19.6037 5.34744
lfingers 7.12502
lthumb 6.72243 35.2207
rfemur -25.1543 -8.70341 5.69817
rtibia 69.1423
rfoot 0.0868346 -1.24849
rtoes -14.8584
lfemur -31.1228 7.81481 -32.619
ltibia 57.9888
lfoot -7.25255 5.17658
ltoes 18.5199
60
root -10.4005 15.695 -7.70551 -14.0102 22.2854 -8.8023
lowerback 20.6748 1.75478 2.4638
upperback 5.3547 3.4929 7.51661
thorax -6.06832 1.75992 5.86061
lowerneck -12.321 -0.631163 -6.25424
upperneck 18.2951 0.399021 0.393576
head 7.67242 -0.180934 1.20839
rclavicle -2.26615e-014 4.29375e-014
rhumerus -47.8141 17.5817 -81.7307
rradius 97.4621
rwrist -12.5395
rhand -15.4245 26.0624
rfingers 7.12502
rthumb 10.7553 -3.6423
lclavicle -2.26615e-014 4.29375e-014
lhumerus -60.8437 -8.55667 98.3947
lradius 120.569
lwrist 24.9939
lhand -20.1032 5.05061
lfingers 7.12502
lthumb 6.24015 34.9387
rfemur -25.0888 -7.79559 5.89186
rtibia 65.7258
rfoot -1.79834 -2.09086
rtoes -14.5695
lfemur -30.7604 6.88776 -31.7796
ltibia 60.1141
lfoot -8.84726 5.48482
ltoes 17.5905
61
root -10.3129 15.6964 -7.34383 -14.1318 22.1926 -9.15791
lowerback 21.286 1.63391 2.89541
upperback 4.91678 3.50044 7.50126
thorax -6.84341 1.75767 5.58822
lowerneck -11.6961 -0.235863 -6.14053
upperneck 18.5123 0.883812 0.384943
head 7.6151 0.0557685 1.2355
rclavicle 4.1546e-014 1.90833e-014
rhumerus -48.7182 17.522 -81.5462
rradius 97.1982
rwrist -11.5274
rhand -15.1573 26.4773
rfingers 7.12502
rthumb 11.013 -3.21385
lclavicle 4.1546e-014 1.90833e-014
lhumerus -61.8898 -8.51003 97.8002
lradius 121.231
lwrist 24.6533
lhand -20.2679 4.9152
lfingers 7.12502
lthumb 6.08115 34.8079
rfemur -24.7499 -6.58536 6.03407
rtibia 61.6291
rfoot -3.07494 -1.69105
rtoes -14.646
lfemur -30.3906 5.87948 -30.7876
ltibia 62.1473
lfoot -9.95733 5.26033
ltoes 15.8497
62
root -10.2281 15.6848 -6.97809 -13.9113 22.8751 -9.3707
lowerback 21.3958 1.32279 3.30491
upperback 4.54785 3.20935 7.38164
thorax -7.25297 1.60746 5.30139
lowerneck -11.1605 0.100428 -5.81431
upperneck 18.4267 1.28004 0.20431
head 7.48001 0.254991 1.15805
rclavicle -9.34288e-015 -7.95139e-014
rhumerus -49.3804 17.0324 -81.3343
rradius 96.8979
rwrist -10.4635
rhand -15.3758 26.9385
rfingers 7.12502
rthumb 10.8022 -2.76376
lclavicle -9.34288e-015 -7.95139e-014
lhumerus -62.2685 -8.74877 97.2075
lradius 121.467
lwrist 24.3362
lhand -20.1256 4.57433
lfingers 7.12502
lthumb 6.21857 34.4631
rfemur -24.3323 -5.65696 5.78696
rtibia 57.1102
rfoot -4.12141 -0.964419
rtoes -17.2843
lfemur -30.3398 4.29853 -30.173
ltibia 64.244
lfoot -10.7186 4.6144
ltoes 13.9166
63
root -10.1595 15.6641 -6.60457 -13.6031 23.0873 -9.5603
lowerback 21.4692 1.20672 3.58301
upperback 4.30537 3.13818 7.32326
thorax -7.53528 1.56522 5.09838
lowerneck -11.1316 0.394929 -5.7052
upperneck 18.4917 1.66252 0.21171
head 7.48404 0.444966 1.17928
rclavicle -8.54774e-015 -2.38542e-014
rhumerus -49.8027 16.5274 -81.0796
rradius 96.5823
rwrist -9.5972
rhand -15.4312 27.2343
rfingers 7.12502
rthumb 10.7488 -2.47073
lclavicle -8.54774e-015 -2.38542e-014
lhumerus -62.2065 -8.98024 96.6177
lradius 121.452
lwrist 24.1627
lhand -20.3775 4.46497
lfingers 7.12502
lthumb 5.9754 34.3607
rfemur -24.0639 -3.84189 5.6908
rtibia 52.3232
rfoot -4.88798 -0.588453
rtoes -21.023
lfemur -30.579 3.76006 -29.4665
ltibia 66.5116
lfoot -11.3125 3.46199
ltoes 10.6411
